# xmcd CD database file
# Copyright (C) 1997 Ti Kan
#
# Track frame offsets:
#  187
#  14207
#  31467
#  48040
#  58682
#  75612
#  96867
#  114480
#  130040
#  141245
#  155660
#  170152
#  182400
#
# Disc length: 2790 seconds
#
# Revision: 1
# Processed by: cddbd v1.4b41PL1 Copyright (c) Steve Scherf et al.
# Submitted via: CDWizzard Release:4.32
#
DISCID=ae0ae40d
DTITLE=Black Ivory - Don't Turn Around
DYEAR=1900
DGENRE=
TTITLE0=It's Time To Say Goodbye
TTITLE1=Time Is Love
TTITLE2=Just Leave Me Some
TTITLE3=Loveland
TTITLE4=No If's And's Or But's
TTITLE5=Wishful Thinking
TTITLE6=Our Future
TTITLE7=Don't Turn Around
TTITLE8=Surrender
TTITLE9=I'll Find A Way
TTITLE10=I Keep Asking You Questions
TTITLE11=She Said She's Leaving
TTITLE12=You and I
EXTD=
EXTT0=
EXTT1=
EXTT2=
EXTT3=
EXTT4=
EXTT5=
EXTT6=
EXTT7=
EXTT8=
EXTT9=
EXTT10=
EXTT11=
EXTT12=
PLAYORDER=
